<svg xmlns="http://www.w3.org/2000/svg" viewBox="0 0 1985.08 602.29"><defs><style>.cls-1{fill:#63acdf;}.cls-2{fill:#c14a4b;}.cls-3{font-size:262.08px;fill:#4f4f4f;font-family:BigJohn, Big John;}.cls-4{letter-spacing:-0.04em;}.cls-5{letter-spacing:0em;}.cls-6{letter-spacing:-0.05em;}</style></defs><title>highres-Color-mark</title><g id="Color"><g id="Mark-3" data-name="Mark"><g id="Crescent"><path id="Path_2" data-name="Path 2" class="cls-1" d="M322.5,40.82A272.17,272.17,0,0,0,73.67,203.54C111.13,383.45,253,524.76,433.23,561.37a270.47,270.47,0,0,0,153.14-314,148,148,0,0,1-72.89,19.38c-81.23,0-147.09-65.29-147.09-145.84h0a144.94,144.94,0,0,1,19.48-72.31A272.26,272.26,0,0,0,322.5,40.82Z"/><path id="Path_1" data-name="Path 1" class="cls-1" d="M52.37,282.54a272,272,0,0,0-2,30.45c0,150.31,121.86,272.16,272.17,272.16h0a270.41,270.41,0,0,0,31.93-2.08A506.44,506.44,0,0,1,52.37,282.54Z"/></g><g id="Circles"><ellipse id="circle-1" class="cls-2" cx="513.48" cy="120.94" rx="104.68" ry="103.8"/><ellipse id="circle-2" class="cls-2" cx="772.38" cy="120.94" rx="104.68" ry="103.8"/><ellipse id="circle-3" class="cls-2" cx="1031.29" cy="120.94" rx="104.68" ry="103.8"/><ellipse id="circle-4" class="cls-2" cx="1290.2" cy="120.94" rx="104.68" ry="103.8"/></g><text class="cls-3" transform="translate(664.22 507.78)"><tspan class="cls-4">C</tspan><tspan class="cls-5" x="192.1" y="0">HI</tspan><tspan class="cls-6" x="488.24" y="0">C</tspan><tspan x="676.41" y="0">ODE</tspan></text></g></g></svg>