<svg xmlns="http://www.w3.org/2000/svg" viewBox="0 0 2000 602.29"><defs><style>.cls-1,.cls-3{fill:#fff;}.cls-2{fill:#c14a4b;}.cls-3{font-size:262.08px;font-family:BigJohn, Big John;}.cls-4{letter-spacing:-0.04em;}.cls-5{letter-spacing:0em;}.cls-6{letter-spacing:-0.05em;}</style></defs><title>highres-Accent-mark</title><g id="Accent"><g id="Mark-2" data-name="Mark"><g id="Crescent"><path id="Path_2" data-name="Path 2" class="cls-1" d="M330,40.82A272.17,272.17,0,0,0,81.13,203.54c37.46,179.91,179.34,321.22,359.56,357.83a270.47,270.47,0,0,0,153.14-314,148,148,0,0,1-72.89,19.38c-81.23,0-147.09-65.29-147.09-145.84h0a144.94,144.94,0,0,1,19.48-72.31A272.26,272.26,0,0,0,330,40.82Z"/><path id="Path_1" data-name="Path 1" class="cls-1" d="M59.83,282.54a274.43,274.43,0,0,0-2,30.45C57.8,463.3,179.65,585.15,330,585.15h0a270.41,270.41,0,0,0,31.93-2.08A506.44,506.44,0,0,1,59.83,282.54Z"/></g><g id="Circles"><ellipse id="circle-1" class="cls-2" cx="520.94" cy="120.94" rx="104.68" ry="103.8"/><ellipse id="circle-2" class="cls-2" cx="779.84" cy="120.94" rx="104.68" ry="103.8"/><ellipse id="circle-3" class="cls-2" cx="1038.75" cy="120.94" rx="104.68" ry="103.8"/><ellipse id="circle-4" class="cls-2" cx="1297.66" cy="120.94" rx="104.68" ry="103.8"/></g><text class="cls-3" transform="translate(671.68 507.78)"><tspan class="cls-4">C</tspan><tspan class="cls-5" x="192.1" y="0">HI</tspan><tspan class="cls-6" x="488.24" y="0">C</tspan><tspan x="676.41" y="0">ODE</tspan></text></g></g></svg>