<svg xmlns="http://www.w3.org/2000/svg" viewBox="0 0 1000 1000"><defs><style>.cls-1{fill:#fff;}.cls-2{fill:#c14a4b;}</style></defs><title>highres-Accent-logo</title><g id="Accent"><g id="Logo-2" data-name="Logo"><g id="Crecent"><path class="cls-1" d="M26.72,518.48C26.73,770,230.6,973.82,482.08,973.82h0a455,455,0,0,0,53.2-3.69A843.5,843.5,0,0,1,30,466.69a457.46,457.46,0,0,0-3.24,51.79"/><path class="cls-1" d="M480.36,65.79A455.35,455.35,0,0,0,64.08,337.35,772.79,772.79,0,0,0,665.59,936.5a451.58,451.58,0,0,0,256.13-525,247.65,247.65,0,0,1-121.85,32.36c-135.91,0-246.08-109.24-246.08-244h0a242.44,242.44,0,0,1,32.6-121A456,456,0,0,0,480.36,65.79Z"/></g><g id="Circle"><path id="ellipse2124-4" class="cls-2" d="M975,199.84c0,95.91-78.41,173.66-175.13,173.66S624.73,295.75,624.73,199.84h0c0-95.91,78.41-173.66,175.14-173.66h0C896.59,26.18,975,103.93,975,199.84Z"/></g></g></g></svg>